<svg xmlns="http://www.w3.org/2000/svg" viewBox="0 0 106.34 106.34"><defs><style>.cls-1{fill:#004073;}</style></defs><g id="Layer_2" data-name="Layer 2"><g id="Layer_1-2" data-name="Layer 1"><path class="cls-1" d="M98.59,52.53v.63A45.52,45.52,0,1,1,77,14.57l-5.87,5.88,27.11,7.06L89.67,1.8,82.67,9a53.15,53.15,0,1,0,23.67,44.2v-.63Z"/><rect class="cls-1" x="51.42" y="12.97" width="4.5" height="7.77"/><rect class="cls-1" x="51.42" y="85.48" width="4.5" height="7.76"/><rect class="cls-1" x="85.66" y="50.27" width="7.77" height="4.5"/><rect class="cls-1" x="12.95" y="50.27" width="7.77" height="4.5"/><path class="cls-1" d="M49.08,64.55H40.4a12.74,12.74,0,0,0-2.09.18c-.48.07-1,.17-1.45.29l7.06-7.14c.91-.93,1.78-1.85,2.6-2.73a20.92,20.92,0,0,0,2.19-2.81,15.22,15.22,0,0,0,1.5-3.06,10.7,10.7,0,0,0,.56-3.5,10,10,0,0,0-.79-4,9,9,0,0,0-2.21-3.08,10,10,0,0,0-3.39-2A13.16,13.16,0,0,0,40,36a14,14,0,0,0-4.26.62,10.67,10.67,0,0,0-3.53,1.87,10.38,10.38,0,0,0-2.57,3.09,12.71,12.71,0,0,0-1.38,4.3l0,.21,3.25.57a2.91,2.91,0,0,0,2.25-.35A2.59,2.59,0,0,0,34.6,45a5,5,0,0,1,5.1-3.69,6,6,0,0,1,1.95.3,3.87,3.87,0,0,1,2.43,2.35,5.78,5.78,0,0,1,.33,2,8.2,8.2,0,0,1-.35,2.45,10.17,10.17,0,0,1-1,2.3A16.48,16.48,0,0,1,41.34,53c-.68.79-1.45,1.62-2.29,2.46L28.79,65.68A3.75,3.75,0,0,0,28,66.91a3.62,3.62,0,0,0-.26,1.29v2.11H51.33V66.67a2,2,0,0,0-.62-1.54,2.32,2.32,0,0,0-1.63-.58"/><path class="cls-1" d="M74.39,57.26V36.37h-5.8L52.44,57.72l.61,3a1.75,1.75,0,0,0,.64,1,1.79,1.79,0,0,0,1.16.41H68.9v8.17h5.49V62.14h2.85a1.36,1.36,0,0,0,1.05-.41,1.39,1.39,0,0,0,.35-.94V57.26Zm-15.13,0L69,43.93c0,.33,0,.66-.07,1,0,.56,0,1.1,0,1.61V57.26Z"/></g></g></svg>