<svg xmlns="http://www.w3.org/2000/svg" viewBox="0 0 75.77 74.43"><defs><style>.cls-1{fill:#fff;}</style></defs><g id="Layer_2" data-name="Layer 2"><g id="Layer_1-2" data-name="Layer 1"><circle class="cls-1" cx="24.46" cy="67.07" r="7.36"/><circle class="cls-1" cx="57.6" cy="67.07" r="7.36"/><path class="cls-1" d="M75.12,13.83a3.15,3.15,0,0,0-2.47-1.2H13.42l-.88-9.8A3.12,3.12,0,0,0,9.44,0H3.12a3.11,3.11,0,1,0,0,6.22H6.6l3.4,38v.14c0,.12,0,.24.05.34l.12,1.4a.13.13,0,0,0,0,.08,9.68,9.68,0,0,0,.22,1.31h0a11.67,11.67,0,0,0,8.37,8.68,20.57,20.57,0,0,0,5.94.73l12.8,0h2.11c5.38,0,14,0,19.41,0h4.26a3,3,0,1,0,0-6.08H59.07c-5.37,0-14,0-19.39,0l-10.33,0c-.85,0-1.7,0-2.56,0a20.49,20.49,0,0,1-6.25-.44,6,6,0,0,1-3.85-3.22h.11s0,0,0,0l9.9-.58.94-.06,38.89-2.28a3.11,3.11,0,0,0,2.84-2.36l6.33-25.28A3.21,3.21,0,0,0,75.12,13.83Z"/></g></g></svg>