<svg xmlns="http://www.w3.org/2000/svg" viewBox="0 0 122.45 113.86"><defs><style>.cls-1{fill:#004073;}</style></defs><g id="Layer_2" data-name="Layer 2"><g id="Layer_1-2" data-name="Layer 1"><path class="cls-1" d="M0,58.57c.1,0,.27-.09.29-.16A6,6,0,0,1,5.94,54c.39,0,.79,0,1.18,0h42a6.13,6.13,0,0,1,5.55,2.75c.24.35.45.31.75.1A63.26,63.26,0,0,1,68.21,50.2l.26-.11c1.39-.48,1.68-.84,1.72-2.28a1,1,0,0,0-.27-.6,26.82,26.82,0,0,1-6.08-10.47,33.36,33.36,0,0,1-1.51-11.58c0-.18,0-.37,0-.55a1.26,1.26,0,0,0-.09-.26,5.74,5.74,0,0,0-.68.76c-.42.64-.8,1.31-1.2,2a2.18,2.18,0,0,1-2.7.81,1.89,1.89,0,0,1-1.15-2.35,10.76,10.76,0,0,1,1.32-2.73,17.25,17.25,0,0,1,4.72-4.41,1.61,1.61,0,0,0,.78-1.16c.69-4.53,3.33-8,6.3-11.2a17.19,17.19,0,0,1,7.12-4.89,24.82,24.82,0,0,1,4-.76C81.35.3,81.91.29,82.57.24L82.06,0h3.5l-.74.23a25.69,25.69,0,0,1,8.71,1.66c3.65,1.5,6,4.35,7.53,7.87a19.67,19.67,0,0,1,1.69,8.07c0,1.54,0,3.08,0,4.61a17.73,17.73,0,0,0,.54,4.95,7.58,7.58,0,0,1-1.62,7.3c-2.43,2.85-4.77,5.79-7.16,8.67a1,1,0,0,0-.19,1.08c.55,1.56,1.06,3.13,1.64,4.67a1.48,1.48,0,0,0,.73.75c5.81,2.67,11.41,5.76,17,8.94a20.24,20.24,0,0,1,5.76,4.7,12.86,12.86,0,0,1,2.75,6.17,13.62,13.62,0,0,1,.3,1.65,2.31,2.31,0,0,1-2.21,2.48A2.22,2.22,0,0,1,118,71.44a8.66,8.66,0,0,0-3.84-6.87,83,83,0,0,0-10-6.12c-.47-.25-.7-.23-1,.2-2.78,3.71-5.59,7.39-8.38,11.09-1,1.28-1.76,1.54-3.18.84-2.25-1.11-4.45-2.3-6.68-3.46-.18-.1-.37-.18-.62-.3a5.66,5.66,0,0,0-.4.44C82,69.83,80.13,72.4,78.27,75a2.26,2.26,0,0,0-.39,1.21c0,2.4,0,4.8,0,7.2a2.18,2.18,0,0,1-1.74,2.23,2.09,2.09,0,0,1-2.44-1.27,3,3,0,0,1-.18-1.09c0-2.42,0-4.84,0-7.26A2.4,2.4,0,0,0,73.23,75a32.36,32.36,0,0,1-2.77-6.76c0-.06-.07-.11-.15-.24-.2.12-.39.22-.57.35L66,71.11a2.2,2.2,0,0,1-3.72-1.36c-.74-3.19-1.46-6.39-2.19-9.59-.08-.33-.18-.66-.29-1a15.5,15.5,0,0,0-3.84,3,1.1,1.1,0,0,0-.23.69q0,13.84,0,27.68c0,.18.26.54.39.54a16.47,16.47,0,0,1,6.94,1.66c4,1.74,8.28,2.08,12.58,2.13,2.39,0,4.79-.2,7.18-.25a2,2,0,0,0,1.85-1,49.18,49.18,0,0,0,3-5.35c1.48-3.47,2.77-7,4.1-10.58A2.22,2.22,0,0,1,94.5,76a2.12,2.12,0,0,1,1.42,2.72C95,81.49,94,84.18,93,86.89c-.18.5-.4,1-.64,1.59,1.56.94,3.09,1.91,4.65,2.82a88.16,88.16,0,0,0,13.75,6.42,2.13,2.13,0,0,0,2.81-1.12,43.43,43.43,0,0,0,3.93-14.75c0-.58.09-1.16.17-1.74a2.16,2.16,0,0,1,2.35-1.9,2.22,2.22,0,0,1,2,2.4,72.14,72.14,0,0,1-2.37,13A19.06,19.06,0,0,1,117.21,99a6.81,6.81,0,0,1-9,2.57,5,5,0,0,1-1.07-.49c-.64-.48-1-.27-1.48.29-2.29,2.7-4.64,5.34-6.94,8a11,11,0,0,1-7.42,4.14c-.62.06-1.23.24-1.85.36,0-.06,0-.13,0-.19l.27-.07-5.89-1.11c-4-.75-8-1.62-12-2.21a27.57,27.57,0,0,0-12.55,1.11,21.55,21.55,0,0,1-8.3.75,36.91,36.91,0,0,1-15.13-4.22,12,12,0,0,1-5.22-4.8,1.52,1.52,0,0,0-1.6-1c-7.55,0-15.09,0-22.64,0a6,6,0,0,1-6-4.37c0-.1-.2-.16-.3-.24V72.41l.37-.31a4.78,4.78,0,0,1,1.51-1c1.46-.32,2.56.74,2.56,2.34v22.3c0,1.49.57,2.07,2.05,2.07H25c8.22,0,16.44,0,24.67,0,.53,0,.67-.12.75-.68a21.13,21.13,0,0,1,.7-2.68,4.54,4.54,0,0,0,.27-1.13q0-16.41,0-32.84c0-1.57-.58-2.15-2.15-2.16-2.63,0-5.27,0-7.9,0-.68,0-.86.18-.86.85q0,9.59,0,19.15a3.61,3.61,0,0,1-.1,1,2.18,2.18,0,0,1-3.48,1.13q-4.27-3-8.5-6.12a.69.69,0,0,0-1,0c-2.74,2-5.52,4-8.26,6a2.36,2.36,0,0,1-2.54.41,2.27,2.27,0,0,1-1.27-2.35c0-6.36,0-12.72,0-19.08,0-.17.06-.37,0-.49s-.32-.47-.49-.48c-2.92,0-5.83,0-8.74,0a1.59,1.59,0,0,0-1.66,1.76c0,1.36,0,2.71,0,4.06a2.25,2.25,0,0,1-1.52,2.26,2.2,2.2,0,0,1-2.58-1c-.06-.08-.23-.09-.34-.14Zm35.2,43.67c.34.28.49.45.67.56.89.54,1.75,1.15,2.69,1.6a38,38,0,0,0,13,3.47,15.63,15.63,0,0,0,5.61-.42c1.91-.52,3.82-1,5.76-1.41,4.26-.85,8.5-.35,12.7.4s8.49,1.7,12.73,2.52a9.31,9.31,0,0,0,2.63.18,6.11,6.11,0,0,0,4.15-2.32c1.66-1.95,3.36-3.87,5-5.81.62-.71,1.23-1.43,1.88-2.2-.28-.15-.47-.28-.67-.37a74.18,74.18,0,0,1-9.93-5.36c-1-.63-1-.62-1.56.37a14.93,14.93,0,0,1-3.19,4.21,4.08,4.08,0,0,1-2.37,1.07c-2.88.16-5.76.43-8.64.46a34,34,0,0,1-10.42-1.31c-2.53-.76-5.05-1.57-7.57-2.39a2.21,2.21,0,0,0-3,1.49,2.12,2.12,0,0,0,1.84,2.56c1,.18,2,.31,3,.48a2.21,2.21,0,0,1,1.85,2.41A2.25,2.25,0,0,1,59,104.32c-.58-.07-1.16-.13-1.73-.22A9,9,0,0,1,53,102.65a2.06,2.06,0,0,0-1.39-.47c-5.17,0-10.34,0-15.52,0-.21,0-.43,0-.87,0M67.06,21.59A3.35,3.35,0,0,0,67,22,32.4,32.4,0,0,0,67.19,32a25.74,25.74,0,0,0,5.25,11.49,5.51,5.51,0,0,0,4.31,2.17c1.67.07,3.35,0,5,0,3.6,0,6.39-1.73,8.66-4.3,2.7-3.07,5.21-6.32,7.84-9.45a3.8,3.8,0,0,0,.94-2.69c0-.91,0-.93-1-.93H78.5a10.94,10.94,0,0,1-2.21-.26,9.51,9.51,0,0,1-3.56-2.12l-5.67-4.35m1.26-6.3c1.08-.19,2-.37,2.9-.5a23.94,23.94,0,0,1,10.71.68,18.92,18.92,0,0,1,10.8,8,1.16,1.16,0,0,0,.83.45c1.4.05,2.8,0,4.19,0,.5,0,.64-.17.64-.64,0-1.77,0-3.54,0-5.31A15.75,15.75,0,0,0,97,11.37c-1.19-2.64-2.94-4.81-5.81-5.67a25.05,25.05,0,0,0-8.25-1.18,14.11,14.11,0,0,0-9.39,3.72A22.94,22.94,0,0,0,69.69,13c-.45.72-.87,1.45-1.37,2.29M36.05,74.54c0-.37,0-.55,0-.73,0-4.87,0-9.74,0-14.6,0-.67-.17-.88-.86-.87q-7.37,0-14.74,0c-.67,0-.81.21-.81.83,0,4.87,0,9.73,0,14.6a6.23,6.23,0,0,0,.05.67,3.43,3.43,0,0,0,.42-.2l6.12-4.41a2.28,2.28,0,0,1,3.18,0l4.24,3.06,2.33,1.65m39.89-3.93c.22-.27.35-.4.45-.54l1.67-2.32A212.92,212.92,0,0,1,91.49,51.07c.14-.17.34-.43.29-.59-.35-1.11-.75-2.21-1.09-3.17a31.28,31.28,0,0,1-4.1,1.91,26.9,26.9,0,0,1-11.74.6c-.43-.06-.67,0-.73.48-.19,1.33-.45,2.66-.56,4A36.51,36.51,0,0,0,75.18,68.5c.22.66.47,1.32.76,2.11M99.57,56.17a6,6,0,0,0-.58-.35c-1.19-.57-2.4-1.11-3.58-1.72a.64.64,0,0,0-.94.16q-3.56,4.26-7.13,8.51a4.19,4.19,0,0,0-.3.52c1.6.85,3.12,1.65,4.63,2.47.33.18.52.17.75-.14,2.35-3.13,4.72-6.24,7.15-9.45M71.41,19.33a1.16,1.16,0,0,0,.15.21c1.7,1.3,3.38,2.63,5.12,3.88a2.83,2.83,0,0,0,1.54.51c2.89.05,5.77,0,8.66,0a3.09,3.09,0,0,0,.46-.09,16.33,16.33,0,0,0-15.93-4.53M65.85,65.76c1.2-.91,2.26-1.69,3.29-2.51a.94.94,0,0,0,.2-.67c0-2.44-.13-4.88-.2-7.32,0-.19,0-.39,0-.6a2.6,2.6,0,0,0-.28,0l-4.52,2a.58.58,0,0,0-.36.78c.41,1.74.79,3.49,1.18,5.23.22,1,.46,1.93.73,3.07"/></g></g></svg>