<svg xmlns="http://www.w3.org/2000/svg" viewBox="0 0 178.44 164.16"><defs><style>.cls-1{fill:#343434;}</style></defs><g id="Layer_2" data-name="Layer 2"><g id="Layer_1-2" data-name="Layer 1"><path class="cls-1" d="M89.13,164.16H89A10,10,0,0,1,81.82,161l-4.35-4.63c-7.53-8-15.31-16.32-23.28-24-2.88-2.77-6-5.62-9.26-8.62C24.44,105-1.07,81.56,0,49.32.94,23,21.55,1.35,47,.06c16.32-.82,31.64,6.5,42.24,19.46A50.74,50.74,0,0,1,104.08,6.68c15.57-8.69,33.79-8.8,48.72-.29,15.55,8.85,25.13,25.23,25.62,43.8.86,32.37-24.91,55.67-45.61,74.39-3.19,2.89-6.2,5.61-9,8.27-6.17,5.82-12.2,12.2-18,18.37-3.07,3.26-6.26,6.62-9.45,9.91a10,10,0,0,1-7.19,3M48,20.11h0C32.89,20.87,20.64,34,20.09,50c-.79,23,20,42.11,38.41,59,3.37,3.09,6.55,6,9.61,9,7.29,7,14.29,14.38,21.09,21.61.66-.71,1.33-1.41,2-2.11,6-6.37,12.25-13,18.82-19.17,3-2.81,6.06-5.6,9.34-8.56,18.57-16.8,39.62-35.83,39-59-.31-11.5-6.1-21.55-15.49-26.9-8.91-5.08-19.49-4.94-29,.38-6.19,3.45-11.45,9.79-15.62,18.84a10,10,0,0,1-18.39-.36C73.9,28.29,61.4,19.44,48,20.11"/></g></g></svg>