<svg xmlns="http://www.w3.org/2000/svg" viewBox="0 0 66.54 53.31"><defs><style>.cls-1{fill:#033f70;}</style></defs><g id="Layer_2" data-name="Layer 2"><g id="Layer_1-2" data-name="Layer 1"><path class="cls-1" d="M50.2,30.86a10.49,10.49,0,0,0-8.43,4.23,1.3,1.3,0,0,0,2.07,1.57,7.93,7.93,0,0,1,12.73,0,1.32,1.32,0,0,0,1,.51,1.26,1.26,0,0,0,.78-.26,1.29,1.29,0,0,0,.25-1.82,10.49,10.49,0,0,0-8.44-4.23Z"/><path class="cls-1" d="M66.54,19.94V1.3A1.3,1.3,0,0,0,65.24,0H44.06a1.3,1.3,0,0,0-1.3,1.3V18.64h-.57a9.86,9.86,0,0,0-9.85,9.85v11.8H27.19a13.72,13.72,0,0,0-4.81-9.2v-19h6.26a1.3,1.3,0,1,0,0-2.59H27.5v-6a1.3,1.3,0,0,0-1.3-1.29H19.32a5.69,5.69,0,0,0-5.69,5.69V9.73a1.28,1.28,0,0,0-.51.73L8.2,29A13.74,13.74,0,0,0,0,41.59a1.3,1.3,0,0,0,1.3,1.3H3.93c0,.21,0,.42,0,.63a9.72,9.72,0,1,0,19.43,0c0-.21,0-.42,0-.63H41.9q0,.33,0,.66a9.72,9.72,0,1,0,19.43,0c0-.22,0-.44,0-.66h4a1.3,1.3,0,0,0,1.3-1.3,16.4,16.4,0,0,0-1.69-7.27V28.49a9.83,9.83,0,0,0-3.19-7.25h3.58a1.3,1.3,0,0,0,1.3-1.3ZM56.6,2.6V5.7H52.69V2.6ZM16.22,7.91a3.12,3.12,0,0,1,3.1-3.1H24.9V9.5H16.22V7.91Zm-.85,4.18h4.41V29.35a13.57,13.57,0,0,0-8.65-1.25Zm5.37,31.43a7.12,7.12,0,1,1-14.23,0q0-.32,0-.63H20.71Q20.74,43.21,20.74,43.52ZM2.67,40.29a11,11,0,0,1,21.91,0ZM51.59,50.71a7.14,7.14,0,0,1-7.12-7.16q0-.31,0-.63H58.67q0,.31,0,.63A7.14,7.14,0,0,1,51.59,50.71ZM36.53,40.29a13.73,13.73,0,0,1,27.35,0Zm25.72-11.8v2a16.27,16.27,0,0,0-27.31,5.24V28.49a7.26,7.26,0,0,1,7.25-7.25H55a7.26,7.26,0,0,1,7.25,7.25Zm1.69-9.85H45.36V2.6h4.73V7a1.3,1.3,0,0,0,1.3,1.3H57.9A1.3,1.3,0,0,0,59.2,7V2.6h4.74Z"/></g></g></svg>