<svg xmlns="http://www.w3.org/2000/svg" viewBox="0 0 49.15 49.15"><defs><style>.cls-1{fill:#033f70;}</style></defs><g id="Layer_2" data-name="Layer 2"><g id="Layer_1-2" data-name="Layer 1"><path class="cls-1" d="M8.43,49.15a4.84,4.84,0,0,1-4.84-4.84V20.72l-.22-.2A8.46,8.46,0,0,1,0,13.81V12a1.53,1.53,0,0,1,.06-.4L3.65.86A1.26,1.26,0,0,1,4.85,0H44.31A1.26,1.26,0,0,1,45.5.86l3.59,10.76a1.15,1.15,0,0,1,.06.37v1.82a8.4,8.4,0,0,1-3.37,6.71l-.21.16V44.31a4.85,4.85,0,0,1-4.85,4.84ZM30,28.7A1.26,1.26,0,0,1,31.22,30V46.64h9.5a2.34,2.34,0,0,0,2.33-2.33V22l-.64.13a8.63,8.63,0,0,1-1.68.17,8.39,8.39,0,0,1-5.07-1.72l-.31-.24-.33.24a8.56,8.56,0,0,1-10.13,0l-.31-.24-.32.24a8.56,8.56,0,0,1-10.13,0l-.32-.24-.32.24a8.39,8.39,0,0,1-5.07,1.72,8.52,8.52,0,0,1-1.67-.17L6.1,22V44.31a2.34,2.34,0,0,0,2.33,2.33h9.51V30A1.25,1.25,0,0,1,19.2,28.7ZM20.45,46.64H28.7V31.22H20.45ZM35.34,17.26a1.25,1.25,0,0,1,.95.43,5.82,5.82,0,0,0,4.43,2,5.93,5.93,0,0,0,5.92-5.92v-.53H2.52v.53a5.92,5.92,0,0,0,5.91,5.92,5.84,5.84,0,0,0,4.44-2.05l0,0a1.29,1.29,0,0,1,.9-.36,1.32,1.32,0,0,1,1,.41,3.82,3.82,0,0,0,.45.45,5.93,5.93,0,0,0,8.39-.46l.05,0a1.33,1.33,0,0,1,1.87.05,4.78,4.78,0,0,0,.45.45,5.95,5.95,0,0,0,8.4-.46.68.68,0,0,1,.12-.12A1.26,1.26,0,0,1,35.34,17.26Zm1.26-6.5h9.55L43.4,2.52H36.6Zm-10.76,0h8.24V2.52H25.84Zm-10.77,0h8.25V2.52H15.07ZM3,10.76h9.56V2.52H5.75Z"/></g></g></svg>